PathFileType	4	(X/Y/Z)	s07c0102.trc
DataRate	CameraRate	NumFrames	NumMarkers	Units	OrigDataRate	OrigDataStartFrame	OrigNumFrames
200	200	7	48	mm	200	500	2000
Frame#	Time	racr			lacr			c7			jug			rlel			rdr			llel			ldr			s2			lic			ric			lasi			rasi			rpsi			lpsi			rgt			lgt			rth1			rth2			rth3			rth4			rlfc			rmfc			rsh1			rsh2			rsh3			rsh4			rlmal			rcal			rtoe			rmt5			lth1			lth2			lth4			lth3			llfc			lmfc			lsh1			lsh2			lsh3			lsh4			llmal			lcal			ltoe			lmt5			SBIKE			LBIKE			RBIKE			
		X1	Y1	Z1	X2	Y2	Z2	X3	Y3	Z3	X4	Y4	Z4	X5	Y5	Z5	X6	Y6	Z6	X7	Y7	Z7	X8	Y8	Z8	X9	Y9	Z9	X10	Y10	Z10	X11	Y11	Z11	X12	Y12	Z12	X13	Y13	Z13	X14	Y14	Z14	X15	Y15	Z15	X16	Y16	Z16	X17	Y17	Z17	X18	Y18	Z18	X19	Y19	Z19	X20	Y20	Z20	X21	Y21	Z21	X22	Y22	Z22	X23	Y23	Z23	X24	Y24	Z24	X25	Y25	Z25	X26	Y26	Z26	X27	Y27	Z27	X28	Y28	Z28	X29	Y29	Z29	X30	Y30	Z30	X31	Y31	Z31	X32	Y32	Z32	X33	Y33	Z33	X34	Y34	Z34	X35	Y35	Z35	X36	Y36	Z36	X37	Y37	Z37	X38	Y38	Z38	X39	Y39	Z39	X40	Y40	Z40	X41	Y41	Z41	X42	Y42	Z42	X43	Y43	Z43	X44	Y44	Z44	X45	Y45	Z45	X46	Y46	Z46	X47	Y47	Z47	X48	Y48	Z48	
500	2.5000	474.267978	1448.520416	-99.289068	479.909987	1453.978904	-354.278097	428.278977	1512.629451	-232.423445	400.932622	1370.078658	-247.348803	512.640531	1114.852037	17.141851	720.737282	918.965084	-71.967138	531.842722	1139.660045	-508.531930	721.732119	920.128382	-424.431136	-116.644063	1213.531386	-252.087881	34.198298	1277.973736	-394.759960	48.738182	1266.145289	-101.961819	69.710480	1200.757771	-370.318033	67.269848	1218.312802	-123.754391	-93.033150	1254.586347	-201.061137	-84.602168	1265.227754	-308.639541	10.688653	1143.414405	-58.983426	-8.542204	1114.494853	-419.860523	151.989210	1083.583485	-67.130250	235.373117	1059.695166	-80.695725	298.733052	1002.540978	-77.804120	249.553828	1087.623051	-100.198263	398.149692	902.394245	-109.997170	384.931245	884.461638	-215.813828	303.200059	797.963238	-82.293840	257.638448	723.573787	-95.582305	182.550122	678.909835	-88.246535	269.507191	713.271136	-133.576616	83.318645	586.004866	-82.502392	11.394068	612.303061	-115.723289	161.987442	363.301222	-129.816122	93.006094	408.984791	-59.632370	52.706118	1004.904310	-431.238297	119.409907	947.109083	-434.322130	149.616493	967.425157	-427.835013	148.560866	863.278775	-429.745652	240.618546	715.028026	-402.022346	233.274926	695.111607	-310.386989	211.175330	569.144690	-424.859459	220.960029	485.930125	-405.753493	187.232965	402.042023	-410.952857	223.483638	488.978879	-363.120542	159.858833	266.930715	-404.777212	98.037303	217.860871	-372.034702	387.302547	242.637627	-363.954575	312.110181	204.785469	-427.567421	-262.490764	971.244200	-239.336455	-83.311782	78.965270	-437.905475	-83.253958	79.051380	-40.452937	
501	2.5050	472.372956	1451.551621	-97.837999	480.672785	1456.270287	-351.915866	426.975895	1516.199248	-231.304705	399.833399	1373.667963	-246.852698	512.979347	1116.636110	16.284420	721.110472	919.732415	-72.408757	533.872683	1141.985299	-506.295319	722.129012	920.360589	-424.255327	-115.466185	1213.151289	-252.550287	34.996767	1277.792888	-396.078282	49.141243	1267.912750	-103.058908	70.822901	1200.672359	-371.710158	68.390726	1220.089201	-125.075481	-92.316600	1254.776668	-201.656379	-83.819820	1264.786992	-309.638327	13.036373	1145.466429	-59.315243	-8.247846	1113.946103	-419.900561	154.713316	1087.119806	-67.708319	238.436604	1064.038584	-81.336629	302.511627	1007.742628	-78.634232	252.206380	1092.148531	-100.953031	402.487934	908.625228	-111.205489	389.296276	890.715098	-216.925102	308.013872	804.203708	-83.165511	262.120171	730.135300	-96.591343	186.404687	686.023142	-88.607899	273.772242	719.766957	-134.784290	86.864748	592.575569	-83.126386	14.694510	618.056986	-115.936177	168.532883	370.940146	-130.247817	99.094498	415.962658	-60.014864	51.462354	1003.925160	-432.045867	117.172487	945.033083	-436.070962	147.812921	964.888808	-430.021350	144.942897	860.681592	-431.584321	235.409405	711.439214	-404.552099	229.190861	691.666898	-313.417790	205.885886	565.585524	-426.752636	216.071098	482.479937	-407.539287	182.542557	398.461283	-412.100184	219.556804	485.517534	-365.009493	155.708347	263.484890	-405.042082	93.236206	215.791173	-372.117881	382.896895	234.975836	-363.884701	307.299461	198.158519	-427.197339	-262.659125	971.274686	-239.178456	-83.316606	78.993007	-437.925912	-83.297577	79.166501	-40.456595	
502	2.5100	470.587299	1454.442067	-96.447779	483.264630	1459.895481	-355.797935	425.746199	1519.474477	-230.103589	400.949659	1376.664822	-247.028358	513.531214	1118.377581	15.295755	721.450619	920.645913	-72.905385	535.986329	1144.529768	-504.919890	722.470814	920.516197	-424.031710	-114.346359	1212.786366	-253.020867	35.702411	1277.623160	-397.323912	49.377967	1269.541087	-104.152365	71.826412	1200.699987	-373.101962	69.440270	1221.820788	-126.576748	-91.572051	1254.846795	-202.354510	-83.055868	1264.378592	-310.623906	15.532242	1147.323830	-59.782612	-8.078411	1113.504908	-419.891867	157.389302	1090.303897	-68.160849	241.359194	1068.336588	-81.942096	305.981771	1012.678377	-79.443551	254.679566	1096.385603	-101.798905	406.694362	914.795350	-112.414689	393.354454	896.917931	-218.110844	312.499094	810.324400	-84.153227	266.334008	736.548178	-97.637633	190.304684	692.731411	-89.220649	277.938061	726.124412	-135.884620	90.588138	598.856641	-83.698489	18.224376	623.436054	-115.914391	175.387650	378.406832	-130.625476	105.512826	422.558159	-60.383610	50.187895	1002.963408	-432.775640	114.829414	942.987619	-437.788130	145.868999	962.419989	-432.223231	141.375549	858.249768	-433.260465	230.234072	707.998080	-406.887534	225.352412	688.517165	-315.709751	200.702353	562.363127	-428.534692	211.229724	479.253844	-409.115821	177.718180	395.169360	-413.226787	215.440819	482.665448	-366.504102	151.375794	260.321778	-405.363741	88.206720	214.159328	-372.041174	378.149605	227.548758	-363.863785	302.195606	191.833479	-426.824214	-262.745596	971.371115	-239.298469	-83.318059	78.973712	-437.939425	-83.270756	79.222805	-40.479808	
503	2.5150	468.878800	1457.358941	-95.087375	483.850517	1461.648887	-352.888206	424.642304	1522.398312	-228.850302	400.091262	1379.564553	-245.995334	514.402579	1120.235023	14.355242	721.792730	921.566701	-73.345614	537.969261	1146.698276	-502.934596	722.875174	920.547617	-423.985352	-113.408114	1212.595604	-253.148783	36.371714	1277.474347	-398.577454	49.538286	1271.044787	-105.317826	72.709757	1200.792413	-374.507865	70.281720	1223.399615	-127.903939	-90.874542	1254.850042	-203.110853	-82.260280	1263.959362	-311.546469	17.877417	1149.174449	-60.173050	-8.041048	1112.943083	-419.861711	159.823776	1093.516184	-68.529998	244.018711	1072.368015	-82.664420	309.264761	1017.507390	-80.239617	256.904745	1100.598040	-102.714103	410.653150	920.924003	-113.871023	397.196654	903.004542	-219.285744	316.674582	816.352510	-85.229607	269.243167	742.495183	-100.156438	194.848913	698.603432	-90.830028	282.279601	732.297800	-136.917735	94.652926	604.644323	-84.262837	21.850922	628.308595	-115.761012	181.078124	384.564891	-132.572241	112.242056	428.745420	-60.699180	48.874296	1002.118049	-433.392188	112.473475	941.144792	-439.380108	143.775549	959.759611	-433.962740	137.820757	855.977139	-434.797955	225.322545	704.973862	-408.824936	221.449446	685.678147	-317.716717	195.592866	559.536884	-430.003033	206.303654	476.366604	-410.532749	172.799461	392.233246	-414.138142	210.241738	479.568141	-368.351909	146.799794	257.475681	-405.560276	82.947079	212.860648	-372.087808	373.131927	220.335836	-363.880287	296.737359	185.905727	-426.538146	-262.819154	971.339031	-239.397827	-83.348545	78.991406	-437.928054	-83.258244	79.253348	-40.493713	
504	2.5200	467.168990	1460.125989	-93.695700	484.364429	1463.197542	-349.851104	423.913500	1524.913661	-227.767825	399.349544	1382.063025	-244.820399	515.230356	1122.396041	13.795280	722.087225	922.383059	-73.565079	540.088296	1148.629859	-501.091102	723.350171	920.331078	-423.775213	-112.598610	1212.434247	-253.361572	36.948072	1277.386648	-399.751702	49.602828	1272.428677	-106.321937	73.582787	1200.906764	-375.978063	70.972622	1224.873468	-129.218548	-90.318043	1254.866281	-203.814330	-81.663022	1263.615533	-312.269944	19.957984	1150.911765	-60.684950	-8.074834	1112.461329	-419.820294	162.064964	1096.675787	-68.930006	246.429640	1076.371407	-83.418570	312.282322	1022.264379	-81.023963	258.659465	1104.627767	-103.554905	414.229290	926.913434	-115.005386	400.671515	909.009387	-220.464538	320.763941	822.091814	-86.376315	274.448687	748.865022	-100.947139	199.186432	704.078212	-91.922771	285.646521	737.845699	-138.428185	98.869715	610.046075	-84.833694	25.027832	632.323243	-116.715396	188.751125	391.840481	-132.191842	119.128579	434.659483	-61.057054	47.514599	1001.277574	-433.943085	110.141110	939.417671	-440.818467	141.816547	957.521361	-436.041477	134.383328	853.837564	-436.031546	220.663476	702.262256	-410.357545	217.680040	683.212337	-319.338187	190.553140	556.848072	-431.187045	201.376606	473.804477	-411.662399	167.821483	389.621665	-414.905513	205.830267	477.047996	-369.217207	141.916688	255.097869	-405.700922	77.785582	211.392486	-372.122826	367.812348	213.507272	-363.853045	290.862254	180.467451	-426.432023	-262.870955	971.343539	-239.523977	-83.329462	78.964628	-437.939132	-83.284633	79.269177	-40.487976	
505	2.5250	465.544221	1462.879378	-92.207329	484.844883	1464.488059	-346.810043	423.472685	1526.951706	-226.483433	398.898834	1384.045195	-243.115193	516.125204	1124.577464	13.642818	722.386810	923.481078	-73.786099	542.302765	1150.370036	-499.390721	723.379280	919.711550	-422.983912	-111.933544	1212.299894	-253.547921	37.494482	1277.282575	-400.939513	49.488721	1273.738329	-107.399640	74.363765	1200.984366	-377.413066	71.488690	1226.215426	-130.431646	-89.948997	1254.945367	-204.579334	-81.005766	1263.264601	-313.282052	21.745940	1152.595636	-61.230508	-8.143672	1111.960637	-419.816286	164.118431	1099.652835	-69.395521	248.612154	1080.326885	-84.274243	315.139052	1026.997662	-81.912086	260.384946	1108.609183	-104.655313	417.448488	932.609407	-116.002554	404.073696	915.441708	-222.688596	324.657052	827.650117	-87.585754	279.906291	755.105726	-100.787926	203.434741	709.217703	-92.898507	289.811683	743.480275	-139.490635	103.347246	615.119550	-85.311952	29.210385	636.685185	-116.351232	197.258009	399.123782	-131.433715	126.516501	440.275430	-61.222993	46.146558	1000.462896	-434.436228	107.800036	937.684383	-442.119957	139.750422	955.397180	-437.959655	130.914569	851.809874	-437.067421	216.130199	699.742829	-411.540397	213.883354	680.806172	-320.636176	185.660963	554.446682	-432.137639	196.510169	471.376393	-412.525750	162.815570	387.282495	-415.522593	201.162962	474.650708	-370.178552	136.951081	252.913763	-405.882155	72.202595	210.555958	-372.140330	362.196521	207.068255	-363.732913	284.578714	175.532165	-426.499019	-262.897490	971.354614	-239.664402	-83.340349	78.992423	-437.952413	-83.357486	79.459909	-40.421868	
506	2.5300	463.898537	1465.365572	-90.526405	485.338230	1465.522204	-344.081499	423.458720	1528.377598	-225.303475	398.697847	1385.405459	-241.143379	516.824720	1126.597397	13.383822	722.738272	924.482988	-73.832073	544.603979	1151.753889	-497.857434	723.901007	919.287275	-422.902344	-111.350965	1212.241966	-253.888458	38.066189	1277.214859	-402.105490	49.265338	1275.005553	-108.340861	75.116369	1201.119260	-378.748621	71.760034	1227.462610	-131.601582	-89.588661	1255.671823	-205.078857	-80.415185	1262.862514	-314.008477	23.432690	1154.200876	-61.777776	-8.154171	1111.565016	-419.875116	165.849505	1102.691929	-69.977048	250.492513	1084.224588	-85.228852	317.640319	1031.597619	-83.023381	261.862595	1112.497345	-105.754973	420.286047	938.383910	-116.894595	406.746294	920.755404	-222.589588	328.435624	833.018467	-88.826158	282.709948	759.361235	-100.941491	207.688493	714.090390	-93.804556	293.775484	748.875190	-140.658011	107.858515	619.872388	-85.643088	33.346360	640.307681	-116.303636	204.981023	405.030191	-132.265155	133.539086	445.315593	-61.661289	44.848418	999.710062	-434.707242	105.442490	936.193585	-443.678269	137.802063	953.401815	-439.731582	127.624488	849.922414	-437.867603	211.859300	697.386470	-412.343166	210.245278	678.524535	-321.437501	180.906221	552.345117	-432.698603	191.707510	469.264988	-413.147648	157.810046	385.199974	-415.868722	196.644404	472.507615	-370.819411	131.802045	250.996260	-405.939592	66.409061	210.088571	-372.021975	356.228754	200.748465	-363.719106	277.896075	171.114352	-426.734287	-262.919888	971.352747	-239.751457	-83.351496	78.986350	-437.955391	-83.276968	79.290736	-40.514170	
